<?xml version="1.0" encoding="UTF-8" standalone="no"?>
<svg
   xmlns:dc="http://purl.org/dc/elements/1.1/"
   xmlns:cc="http://creativecommons.org/ns#"
   xmlns:rdf="http://www.w3.org/1999/02/22-rdf-syntax-ns#"
   xmlns:svg="http://www.w3.org/2000/svg"
   xmlns="http://www.w3.org/2000/svg"
   viewBox="0 0 129.25125 128.85625"
   height="128.85625"
   width="129.25125"
   xml:space="preserve"
   version="1.1"
   id="svg3374"><metadata
     id="metadata3380"><rdf:RDF><cc:Work
         rdf:about=""><dc:format>image/svg+xml</dc:format><dc:type
           rdf:resource="http://purl.org/dc/dcmitype/StillImage" /><dc:title></dc:title></cc:Work></rdf:RDF></metadata><defs
     id="defs3378"><clipPath
       id="clipPath3388"
       clipPathUnits="userSpaceOnUse"><path
         id="path3390"
         d="m 141.328,297.668 c 0,-26.616 20.112,-48.533 45.968,-51.386 l 0,0 11.463,0 c 25.856,2.853 45.97,24.77 45.97,51.386 l 0,0 c 0,28.554 -23.147,51.699 -51.702,51.699 l 0,0 c -28.555,0 -51.699,-23.145 -51.699,-51.699" /></clipPath><clipPath
       id="clipPath3856"
       clipPathUnits="userSpaceOnUse"><path
         id="path3858"
         d="m 0,0 841.89,0 0,595.276 L 0,595.276 0,0 Z" /></clipPath></defs><g
     transform="matrix(1.25,0,0,-1.25,-377.30194,457.34621)"
     id="g3382"><g
       transform="translate(160.51355,16.509965)"
       id="g3384"><g
         clip-path="url(#clipPath3388)"
         id="g3386"><g
           transform="translate(140.3325,352.2445)"
           id="g3392"><path
             id="path3394"
             style="fill:#363639;fill-opacity:1;fill-rule:nonzero;stroke:none"
             d="m 0,0 c 2.078,0 3.764,-1.684 3.764,-3.763 0,-2.079 -1.686,-3.764 -3.764,-3.764 -2.08,0 -3.764,1.685 -3.764,3.764 C -3.764,-1.684 -2.08,0 0,0 m 0,0.972 c -2.612,0 -4.736,-2.124 -4.736,-4.735 0,-2.612 2.124,-4.736 4.736,-4.736 2.612,0 4.737,2.124 4.737,4.736 0,2.611 -2.125,4.735 -4.737,4.735" /></g><g
           transform="translate(147.8606,352.2445)"
           id="g3396"><path
             id="path3398"
             style="fill:none;stroke:#363639;stroke-width:0.97299999;stroke-linecap:round;stroke-linejoin:round;stroke-miterlimit:10;stroke-dasharray:none;stroke-opacity:1"
             d="M 0,0 0,-7.527 M 15.054,0 l 0,-7.527" /></g><g
           transform="translate(155.3863,352.2445)"
           id="g3400"><path
             id="path3402"
             style="fill:#363639;fill-opacity:1;fill-rule:nonzero;stroke:none"
             d="M 0,0 C 2.08,0 3.767,-1.684 3.767,-3.763 3.767,-5.842 2.08,-7.527 0,-7.527 c -2.078,0 -3.761,1.685 -3.761,3.764 C -3.761,-1.684 -2.078,0 0,0 m 0,0.972 c -2.611,0 -4.734,-2.124 -4.734,-4.735 0,-2.612 2.123,-4.736 4.734,-4.736 2.613,0 4.739,2.124 4.739,4.736 0,2.611 -2.126,4.735 -4.739,4.735" /></g><g
           transform="translate(170.4426,352.2445)"
           id="g3404"><path
             id="path3406"
             style="fill:#363639;fill-opacity:1;fill-rule:nonzero;stroke:none"
             d="M 0,0 C 2.08,0 3.767,-1.684 3.767,-3.763 3.767,-5.842 2.08,-7.527 0,-7.527 c -2.078,0 -3.761,1.685 -3.761,3.764 C -3.761,-1.684 -2.078,0 0,0 m 0,0.972 c -2.611,0 -4.734,-2.124 -4.734,-4.735 0,-2.612 2.123,-4.736 4.734,-4.736 2.614,0 4.739,2.124 4.739,4.736 0,2.611 -2.125,4.735 -4.739,4.735" /></g><g
           transform="translate(177.9731,352.2445)"
           id="g3408"><path
             id="path3410"
             style="fill:none;stroke:#363639;stroke-width:0.97299999;stroke-linecap:round;stroke-linejoin:round;stroke-miterlimit:10;stroke-dasharray:none;stroke-opacity:1"
             d="M 0,0 0,-7.527 M 15.054,0 l 0,-7.527" /></g><g
           transform="translate(185.4991,352.2445)"
           id="g3412"><path
             id="path3414"
             style="fill:#363639;fill-opacity:1;fill-rule:nonzero;stroke:none"
             d="M 0,0 C 2.08,0 3.766,-1.684 3.766,-3.763 3.766,-5.842 2.08,-7.527 0,-7.527 c -2.078,0 -3.762,1.685 -3.762,3.764 C -3.762,-1.684 -2.078,0 0,0 m 0,0.972 c -2.611,0 -4.734,-2.124 -4.734,-4.735 0,-2.612 2.123,-4.736 4.734,-4.736 2.613,0 4.739,2.124 4.739,4.736 0,2.611 -2.126,4.735 -4.739,4.735" /></g><g
           transform="translate(200.5553,352.2445)"
           id="g3416"><path
             id="path3418"
             style="fill:#363639;fill-opacity:1;fill-rule:nonzero;stroke:none"
             d="m 0,0 c 2.078,0 3.764,-1.684 3.764,-3.763 0,-2.079 -1.686,-3.764 -3.764,-3.764 -2.08,0 -3.764,1.685 -3.764,3.764 C -3.764,-1.684 -2.08,0 0,0 m 0,0.972 c -2.612,0 -4.737,-2.124 -4.737,-4.735 0,-2.612 2.125,-4.736 4.737,-4.736 2.612,0 4.736,2.124 4.736,4.736 0,2.611 -2.124,4.735 -4.736,4.735" /></g><g
           transform="translate(208.0834,352.2445)"
           id="g3420"><path
             id="path3422"
             style="fill:none;stroke:#363639;stroke-width:0.97299999;stroke-linecap:round;stroke-linejoin:round;stroke-miterlimit:10;stroke-dasharray:none;stroke-opacity:1"
             d="M 0,0 0,-7.527 M 15.056,0 l 0,-7.527" /></g><g
           transform="translate(215.6116,352.2445)"
           id="g3424"><path
             id="path3426"
             style="fill:#363639;fill-opacity:1;fill-rule:nonzero;stroke:none"
             d="m 0,0 c 2.078,0 3.764,-1.684 3.764,-3.763 0,-2.079 -1.686,-3.764 -3.764,-3.764 -2.08,0 -3.764,1.685 -3.764,3.764 C -3.764,-1.684 -2.08,0 0,0 m 0,0.972 c -2.613,0 -4.737,-2.124 -4.737,-4.735 0,-2.612 2.124,-4.736 4.737,-4.736 2.612,0 4.736,2.124 4.736,4.736 0,2.611 -2.124,4.735 -4.736,4.735" /></g><g
           transform="translate(230.6678,352.2445)"
           id="g3428"><path
             id="path3430"
             style="fill:#363639;fill-opacity:1;fill-rule:nonzero;stroke:none"
             d="m 0,0 c 2.078,0 3.764,-1.684 3.764,-3.763 0,-2.079 -1.686,-3.764 -3.764,-3.764 -2.078,0 -3.764,1.685 -3.764,3.764 C -3.764,-1.684 -2.078,0 0,0 m 0,0.972 c -2.612,0 -4.737,-2.124 -4.737,-4.735 0,-2.612 2.125,-4.736 4.737,-4.736 2.612,0 4.736,2.124 4.736,4.736 0,2.611 -2.124,4.735 -4.736,4.735" /></g><g
           transform="translate(238.196,352.2445)"
           id="g3432"><path
             id="path3434"
             style="fill:none;stroke:#363639;stroke-width:0.97299999;stroke-linecap:round;stroke-linejoin:round;stroke-miterlimit:10;stroke-dasharray:none;stroke-opacity:1"
             d="M 0,0 0,-7.527" /></g><g
           transform="translate(245.7241,352.2445)"
           id="g3436"><path
             id="path3438"
             style="fill:#363639;fill-opacity:1;fill-rule:nonzero;stroke:none"
             d="m 0,0 c 2.078,0 3.762,-1.684 3.762,-3.763 0,-2.079 -1.684,-3.764 -3.762,-3.764 -2.08,0 -3.764,1.685 -3.764,3.764 C -3.764,-1.684 -2.08,0 0,0 m 0,0.972 c -2.612,0 -4.737,-2.124 -4.737,-4.735 0,-2.612 2.125,-4.736 4.737,-4.736 2.611,0 4.734,2.124 4.734,4.736 0,2.611 -2.123,4.735 -4.734,4.735" /></g><g
           transform="translate(140.3325,329.6613)"
           id="g3440"><path
             id="path3442"
             style="fill:#363639;fill-opacity:1;fill-rule:nonzero;stroke:none"
             d="m 0,0 c 2.078,0 3.764,-1.685 3.764,-3.763 0,-2.079 -1.686,-3.765 -3.764,-3.765 -2.08,0 -3.764,1.686 -3.764,3.765 C -3.764,-1.685 -2.08,0 0,0 m 0,0.972 c -2.612,0 -4.736,-2.124 -4.736,-4.735 0,-2.612 2.124,-4.738 4.736,-4.738 2.612,0 4.737,2.126 4.737,4.738 0,2.611 -2.125,4.735 -4.737,4.735" /></g><g
           transform="translate(147.8606,329.6613)"
           id="g3444"><path
             id="path3446"
             style="fill:none;stroke:#363639;stroke-width:0.97299999;stroke-linecap:round;stroke-linejoin:round;stroke-miterlimit:10;stroke-dasharray:none;stroke-opacity:1"
             d="M 0,0 0,-7.528 M 15.054,0 l 0,-7.528" /></g><g
           transform="translate(155.3863,329.6613)"
           id="g3448"><path
             id="path3450"
             style="fill:#363639;fill-opacity:1;fill-rule:nonzero;stroke:none"
             d="M 0,0 C 2.08,0 3.767,-1.685 3.767,-3.763 3.767,-5.842 2.08,-7.528 0,-7.528 c -2.078,0 -3.761,1.686 -3.761,3.765 C -3.761,-1.685 -2.078,0 0,0 m 0,0.972 c -2.611,0 -4.734,-2.124 -4.734,-4.735 0,-2.612 2.123,-4.738 4.734,-4.738 2.613,0 4.739,2.126 4.739,4.738 0,2.611 -2.126,4.735 -4.739,4.735" /></g><g
           transform="translate(170.4426,329.6613)"
           id="g3452"><path
             id="path3454"
             style="fill:#363639;fill-opacity:1;fill-rule:nonzero;stroke:none"
             d="M 0,0 C 2.08,0 3.767,-1.685 3.767,-3.763 3.767,-5.842 2.08,-7.528 0,-7.528 c -2.078,0 -3.761,1.686 -3.761,3.765 C -3.761,-1.685 -2.078,0 0,0 m 0,0.972 c -2.611,0 -4.734,-2.124 -4.734,-4.735 0,-2.612 2.123,-4.738 4.734,-4.738 2.614,0 4.739,2.126 4.739,4.738 0,2.611 -2.125,4.735 -4.739,4.735" /></g><g
           transform="translate(177.9731,329.6613)"
           id="g3456"><path
             id="path3458"
             style="fill:none;stroke:#363639;stroke-width:0.97299999;stroke-linecap:round;stroke-linejoin:round;stroke-miterlimit:10;stroke-dasharray:none;stroke-opacity:1"
             d="M 0,0 0,-7.528 M 15.054,0 l 0,-7.528" /></g><g
           transform="translate(185.4991,329.6613)"
           id="g3460"><path
             id="path3462"
             style="fill:#363639;fill-opacity:1;fill-rule:nonzero;stroke:none"
             d="M 0,0 C 2.08,0 3.766,-1.685 3.766,-3.763 3.766,-5.842 2.08,-7.528 0,-7.528 c -2.078,0 -3.762,1.686 -3.762,3.765 C -3.762,-1.685 -2.078,0 0,0 m 0,0.972 c -2.611,0 -4.734,-2.124 -4.734,-4.735 0,-2.612 2.123,-4.738 4.734,-4.738 2.613,0 4.739,2.126 4.739,4.738 0,2.611 -2.126,4.735 -4.739,4.735" /></g><g
           transform="translate(200.5553,329.6613)"
           id="g3464"><path
             id="path3466"
             style="fill:#363639;fill-opacity:1;fill-rule:nonzero;stroke:none"
             d="m 0,0 c 2.078,0 3.764,-1.685 3.764,-3.763 0,-2.079 -1.686,-3.765 -3.764,-3.765 -2.08,0 -3.764,1.686 -3.764,3.765 C -3.764,-1.685 -2.08,0 0,0 m 0,0.972 c -2.612,0 -4.737,-2.124 -4.737,-4.735 0,-2.612 2.125,-4.738 4.737,-4.738 2.612,0 4.736,2.126 4.736,4.738 0,2.611 -2.124,4.735 -4.736,4.735" /></g><g
           transform="translate(208.0834,329.6613)"
           id="g3468"><path
             id="path3470"
             style="fill:none;stroke:#363639;stroke-width:0.97299999;stroke-linecap:round;stroke-linejoin:round;stroke-miterlimit:10;stroke-dasharray:none;stroke-opacity:1"
             d="M 0,0 0,-7.528 M 15.056,0 l 0,-7.528" /></g><g
           transform="translate(215.6116,329.6613)"
           id="g3472"><path
             id="path3474"
             style="fill:#363639;fill-opacity:1;fill-rule:nonzero;stroke:none"
             d="m 0,0 c 2.078,0 3.764,-1.685 3.764,-3.763 0,-2.079 -1.686,-3.765 -3.764,-3.765 -2.08,0 -3.764,1.686 -3.764,3.765 C -3.764,-1.685 -2.08,0 0,0 m 0,0.972 c -2.613,0 -4.737,-2.124 -4.737,-4.735 0,-2.612 2.124,-4.738 4.737,-4.738 2.612,0 4.736,2.126 4.736,4.738 0,2.611 -2.124,4.735 -4.736,4.735" /></g><g
           transform="translate(230.6678,329.6613)"
           id="g3476"><path
             id="path3478"
             style="fill:#363639;fill-opacity:1;fill-rule:nonzero;stroke:none"
             d="m 0,0 c 2.078,0 3.764,-1.685 3.764,-3.763 0,-2.079 -1.686,-3.765 -3.764,-3.765 -2.078,0 -3.764,1.686 -3.764,3.765 C -3.764,-1.685 -2.078,0 0,0 m 0,0.972 c -2.612,0 -4.737,-2.124 -4.737,-4.735 0,-2.612 2.125,-4.738 4.737,-4.738 2.612,0 4.736,2.126 4.736,4.738 0,2.611 -2.124,4.735 -4.736,4.735" /></g><g
           transform="translate(238.196,329.6613)"
           id="g3480"><path
             id="path3482"
             style="fill:none;stroke:#363639;stroke-width:0.97299999;stroke-linecap:round;stroke-linejoin:round;stroke-miterlimit:10;stroke-dasharray:none;stroke-opacity:1"
             d="M 0,0 0,-7.528" /></g><g
           transform="translate(245.7241,329.6613)"
           id="g3484"><path
             id="path3486"
             style="fill:#363639;fill-opacity:1;fill-rule:nonzero;stroke:none"
             d="m 0,0 c 2.078,0 3.762,-1.685 3.762,-3.763 0,-2.079 -1.684,-3.765 -3.762,-3.765 -2.08,0 -3.764,1.686 -3.764,3.765 C -3.764,-1.685 -2.08,0 0,0 m 0,0.972 c -2.612,0 -4.737,-2.124 -4.737,-4.735 0,-2.612 2.125,-4.738 4.737,-4.738 2.611,0 4.734,2.126 4.734,4.738 0,2.611 -2.123,4.735 -4.734,4.735" /></g><g
           transform="translate(140.3325,340.9535)"
           id="g3488"><path
             id="path3490"
             style="fill:none;stroke:#363639;stroke-width:0.97299999;stroke-linecap:round;stroke-linejoin:round;stroke-miterlimit:10;stroke-dasharray:none;stroke-opacity:1"
             d="M 0,0 0,-7.528 M 15.054,0 l 0,-7.528" /></g><g
           transform="translate(147.8606,340.9535)"
           id="g3492"><path
             id="path3494"
             style="fill:#363639;fill-opacity:1;fill-rule:nonzero;stroke:none"
             d="m 0,0 c 2.078,0 3.764,-1.686 3.764,-3.764 0,-2.079 -1.686,-3.764 -3.764,-3.764 -2.078,0 -3.764,1.685 -3.764,3.764 C -3.764,-1.686 -2.078,0 0,0 m 0,0.972 c -2.612,0 -4.736,-2.124 -4.736,-4.736 0,-2.612 2.124,-4.737 4.736,-4.737 2.612,0 4.737,2.125 4.737,4.737 0,2.612 -2.125,4.736 -4.737,4.736" /></g><g
           transform="translate(162.9144,340.9535)"
           id="g3496"><path
             id="path3498"
             style="fill:#363639;fill-opacity:1;fill-rule:nonzero;stroke:none"
             d="M 0,0 C 2.08,0 3.767,-1.686 3.767,-3.764 3.767,-5.843 2.08,-7.528 0,-7.528 c -2.078,0 -3.761,1.685 -3.761,3.764 C -3.761,-1.686 -2.078,0 0,0 m 0,0.972 c -2.611,0 -4.734,-2.124 -4.734,-4.736 0,-2.612 2.123,-4.737 4.734,-4.737 2.614,0 4.739,2.125 4.739,4.737 0,2.612 -2.125,4.736 -4.739,4.736" /></g><g
           transform="translate(170.4426,340.9535)"
           id="g3500"><path
             id="path3502"
             style="fill:none;stroke:#363639;stroke-width:0.97299999;stroke-linecap:round;stroke-linejoin:round;stroke-miterlimit:10;stroke-dasharray:none;stroke-opacity:1"
             d="M 0,0 0,-7.528 M 15.056,0 l 0,-7.528" /></g><g
           transform="translate(177.9731,340.9535)"
           id="g3504"><path
             id="path3506"
             style="fill:#363639;fill-opacity:1;fill-rule:nonzero;stroke:none"
             d="m 0,0 c 2.078,0 3.764,-1.686 3.764,-3.764 0,-2.079 -1.686,-3.764 -3.764,-3.764 -2.08,0 -3.764,1.685 -3.764,3.764 C -3.764,-1.686 -2.08,0 0,0 m 0,0.972 c -2.612,0 -4.736,-2.124 -4.736,-4.736 0,-2.612 2.124,-4.737 4.736,-4.737 2.612,0 4.737,2.125 4.737,4.737 0,2.612 -2.125,4.736 -4.737,4.736" /></g><g
           transform="translate(193.0272,340.9535)"
           id="g3508"><path
             id="path3510"
             style="fill:#363639;fill-opacity:1;fill-rule:nonzero;stroke:none"
             d="M 0,0 C 2.08,0 3.764,-1.686 3.764,-3.764 3.764,-5.843 2.08,-7.528 0,-7.528 c -2.078,0 -3.762,1.685 -3.762,3.764 C -3.762,-1.686 -2.078,0 0,0 m 0,0.972 c -2.611,0 -4.734,-2.124 -4.734,-4.736 0,-2.612 2.123,-4.737 4.734,-4.737 2.612,0 4.736,2.125 4.736,4.737 0,2.612 -2.124,4.736 -4.736,4.736" /></g><g
           transform="translate(200.5553,340.9535)"
           id="g3512"><path
             id="path3514"
             style="fill:none;stroke:#363639;stroke-width:0.97299999;stroke-linecap:round;stroke-linejoin:round;stroke-miterlimit:10;stroke-dasharray:none;stroke-opacity:1"
             d="M 0,0 0,-7.528 M 15.056,0 l 0,-7.528" /></g><g
           transform="translate(208.0834,340.9535)"
           id="g3516"><path
             id="path3518"
             style="fill:#363639;fill-opacity:1;fill-rule:nonzero;stroke:none"
             d="m 0,0 c 2.078,0 3.764,-1.686 3.764,-3.764 0,-2.079 -1.686,-3.764 -3.764,-3.764 -2.078,0 -3.764,1.685 -3.764,3.764 C -3.764,-1.686 -2.078,0 0,0 m 0,0.972 c -2.612,0 -4.737,-2.124 -4.737,-4.736 0,-2.612 2.125,-4.737 4.737,-4.737 2.612,0 4.736,2.125 4.736,4.737 0,2.612 -2.124,4.736 -4.736,4.736" /></g><g
           transform="translate(223.1397,340.9535)"
           id="g3520"><path
             id="path3522"
             style="fill:#363639;fill-opacity:1;fill-rule:nonzero;stroke:none"
             d="M 0,0 C 2.08,0 3.764,-1.686 3.764,-3.764 3.764,-5.843 2.08,-7.528 0,-7.528 c -2.078,0 -3.764,1.685 -3.764,3.764 C -3.764,-1.686 -2.078,0 0,0 m 0,0.972 c -2.612,0 -4.737,-2.124 -4.737,-4.736 0,-2.612 2.125,-4.737 4.737,-4.737 2.612,0 4.736,2.125 4.736,4.737 0,2.612 -2.124,4.736 -4.736,4.736" /></g><g
           transform="translate(230.6678,340.9535)"
           id="g3524"><path
             id="path3526"
             style="fill:none;stroke:#363639;stroke-width:0.97299999;stroke-linecap:round;stroke-linejoin:round;stroke-miterlimit:10;stroke-dasharray:none;stroke-opacity:1"
             d="M 0,0 0,-7.528 M 15.056,0 l 0,-7.528" /></g><g
           transform="translate(238.196,340.9535)"
           id="g3528"><path
             id="path3530"
             style="fill:#363639;fill-opacity:1;fill-rule:nonzero;stroke:none"
             d="m 0,0 c 2.078,0 3.764,-1.686 3.764,-3.764 0,-2.079 -1.686,-3.764 -3.764,-3.764 -2.078,0 -3.764,1.685 -3.764,3.764 C -3.764,-1.686 -2.078,0 0,0 m 0,0.972 c -2.612,0 -4.737,-2.124 -4.737,-4.736 0,-2.612 2.125,-4.737 4.737,-4.737 2.612,0 4.736,2.125 4.736,4.737 0,2.612 -2.124,4.736 -4.736,4.736" /></g><g
           transform="translate(140.3325,307.0769)"
           id="g3532"><path
             id="path3534"
             style="fill:#363639;fill-opacity:1;fill-rule:nonzero;stroke:none"
             d="m 0,0 c 2.078,0 3.764,-1.685 3.764,-3.762 0,-2.08 -1.686,-3.766 -3.764,-3.766 -2.08,0 -3.764,1.686 -3.764,3.766 C -3.764,-1.685 -2.08,0 0,0 m 0,0.972 c -2.612,0 -4.736,-2.123 -4.736,-4.734 0,-2.613 2.124,-4.739 4.736,-4.739 2.612,0 4.737,2.126 4.737,4.739 0,2.611 -2.125,4.734 -4.737,4.734" /></g><g
           transform="translate(147.8606,307.0769)"
           id="g3536"><path
             id="path3538"
             style="fill:none;stroke:#363639;stroke-width:0.97299999;stroke-linecap:round;stroke-linejoin:round;stroke-miterlimit:10;stroke-dasharray:none;stroke-opacity:1"
             d="M 0,0 0,-7.528 M 15.054,0 l 0,-7.528" /></g><g
           transform="translate(155.3863,307.0769)"
           id="g3540"><path
             id="path3542"
             style="fill:#363639;fill-opacity:1;fill-rule:nonzero;stroke:none"
             d="m 0,0 c 2.08,0 3.767,-1.685 3.767,-3.762 0,-2.08 -1.687,-3.766 -3.767,-3.766 -2.078,0 -3.761,1.686 -3.761,3.766 C -3.761,-1.685 -2.078,0 0,0 m 0,0.972 c -2.611,0 -4.734,-2.123 -4.734,-4.734 0,-2.613 2.123,-4.739 4.734,-4.739 2.613,0 4.739,2.126 4.739,4.739 0,2.611 -2.126,4.734 -4.739,4.734" /></g><g
           transform="translate(170.4426,307.0769)"
           id="g3544"><path
             id="path3546"
             style="fill:#363639;fill-opacity:1;fill-rule:nonzero;stroke:none"
             d="m 0,0 c 2.08,0 3.767,-1.685 3.767,-3.762 0,-2.08 -1.687,-3.766 -3.767,-3.766 -2.078,0 -3.761,1.686 -3.761,3.766 C -3.761,-1.685 -2.078,0 0,0 m 0,0.972 c -2.611,0 -4.734,-2.123 -4.734,-4.734 0,-2.613 2.123,-4.739 4.734,-4.739 2.614,0 4.739,2.126 4.739,4.739 0,2.611 -2.125,4.734 -4.739,4.734" /></g><g
           transform="translate(177.9731,307.0769)"
           id="g3548"><path
             id="path3550"
             style="fill:none;stroke:#363639;stroke-width:0.97299999;stroke-linecap:round;stroke-linejoin:round;stroke-miterlimit:10;stroke-dasharray:none;stroke-opacity:1"
             d="M 0,0 0,-7.528 M 15.054,0 l 0,-7.528" /></g><g
           transform="translate(185.4991,307.0769)"
           id="g3552"><path
             id="path3554"
             style="fill:#363639;fill-opacity:1;fill-rule:nonzero;stroke:none"
             d="m 0,0 c 2.08,0 3.766,-1.685 3.766,-3.762 0,-2.08 -1.686,-3.766 -3.766,-3.766 -2.078,0 -3.762,1.686 -3.762,3.766 C -3.762,-1.685 -2.078,0 0,0 m 0,0.972 c -2.611,0 -4.734,-2.123 -4.734,-4.734 0,-2.613 2.123,-4.739 4.734,-4.739 2.613,0 4.739,2.126 4.739,4.739 0,2.611 -2.126,4.734 -4.739,4.734" /></g><g
           transform="translate(200.5553,307.0769)"
           id="g3556"><path
             id="path3558"
             style="fill:#363639;fill-opacity:1;fill-rule:nonzero;stroke:none"
             d="m 0,0 c 2.078,0 3.764,-1.685 3.764,-3.762 0,-2.08 -1.686,-3.766 -3.764,-3.766 -2.08,0 -3.764,1.686 -3.764,3.766 C -3.764,-1.685 -2.08,0 0,0 m 0,0.972 c -2.612,0 -4.737,-2.123 -4.737,-4.734 0,-2.613 2.125,-4.739 4.737,-4.739 2.612,0 4.736,2.126 4.736,4.739 0,2.611 -2.124,4.734 -4.736,4.734" /></g><g
           transform="translate(208.0834,307.0769)"
           id="g3560"><path
             id="path3562"
             style="fill:none;stroke:#363639;stroke-width:0.97299999;stroke-linecap:round;stroke-linejoin:round;stroke-miterlimit:10;stroke-dasharray:none;stroke-opacity:1"
             d="M 0,0 0,-7.528 M 15.056,0 l 0,-7.528" /></g><g
           transform="translate(215.6116,307.0769)"
           id="g3564"><path
             id="path3566"
             style="fill:#363639;fill-opacity:1;fill-rule:nonzero;stroke:none"
             d="m 0,0 c 2.078,0 3.764,-1.685 3.764,-3.762 0,-2.08 -1.686,-3.766 -3.764,-3.766 -2.08,0 -3.764,1.686 -3.764,3.766 C -3.764,-1.685 -2.08,0 0,0 m 0,0.972 c -2.613,0 -4.737,-2.123 -4.737,-4.734 0,-2.613 2.124,-4.739 4.737,-4.739 2.612,0 4.736,2.126 4.736,4.739 0,2.611 -2.124,4.734 -4.736,4.734" /></g><g
           transform="translate(230.6678,307.0769)"
           id="g3568"><path
             id="path3570"
             style="fill:#363639;fill-opacity:1;fill-rule:nonzero;stroke:none"
             d="m 0,0 c 2.078,0 3.764,-1.685 3.764,-3.762 0,-2.08 -1.686,-3.766 -3.764,-3.766 -2.078,0 -3.764,1.686 -3.764,3.766 C -3.764,-1.685 -2.078,0 0,0 m 0,0.972 c -2.612,0 -4.737,-2.123 -4.737,-4.734 0,-2.613 2.125,-4.739 4.737,-4.739 2.612,0 4.736,2.126 4.736,4.739 0,2.611 -2.124,4.734 -4.736,4.734" /></g><g
           transform="translate(238.196,307.0769)"
           id="g3572"><path
             id="path3574"
             style="fill:none;stroke:#363639;stroke-width:0.97299999;stroke-linecap:round;stroke-linejoin:round;stroke-miterlimit:10;stroke-dasharray:none;stroke-opacity:1"
             d="M 0,0 0,-7.528" /></g><g
           transform="translate(245.7241,307.0769)"
           id="g3576"><path
             id="path3578"
             style="fill:#363639;fill-opacity:1;fill-rule:nonzero;stroke:none"
             d="m 0,0 c 2.078,0 3.762,-1.685 3.762,-3.762 0,-2.08 -1.684,-3.766 -3.762,-3.766 -2.08,0 -3.764,1.686 -3.764,3.766 C -3.764,-1.685 -2.08,0 0,0 m 0,0.972 c -2.612,0 -4.737,-2.123 -4.737,-4.734 0,-2.613 2.125,-4.739 4.737,-4.739 2.611,0 4.734,2.126 4.734,4.739 0,2.611 -2.123,4.734 -4.734,4.734" /></g><g
           transform="translate(140.3325,318.3703)"
           id="g3580"><path
             id="path3582"
             style="fill:none;stroke:#363639;stroke-width:0.97299999;stroke-linecap:round;stroke-linejoin:round;stroke-miterlimit:10;stroke-dasharray:none;stroke-opacity:1"
             d="M 0,0 0,-7.529 M 15.054,0 l 0,-7.529" /></g><g
           transform="translate(147.8606,318.3703)"
           id="g3584"><path
             id="path3586"
             style="fill:#363639;fill-opacity:1;fill-rule:nonzero;stroke:none"
             d="m 0,0 c 2.078,0 3.764,-1.686 3.764,-3.765 0,-2.078 -1.686,-3.764 -3.764,-3.764 -2.078,0 -3.764,1.686 -3.764,3.764 C -3.764,-1.686 -2.078,0 0,0 m 0,0.972 c -2.612,0 -4.736,-2.125 -4.736,-4.737 0,-2.613 2.124,-4.737 4.736,-4.737 2.612,0 4.737,2.124 4.737,4.737 0,2.612 -2.125,4.737 -4.737,4.737" /></g><g
           transform="translate(162.9144,318.3703)"
           id="g3588"><path
             id="path3590"
             style="fill:#363639;fill-opacity:1;fill-rule:nonzero;stroke:none"
             d="M 0,0 C 2.08,0 3.767,-1.686 3.767,-3.765 3.767,-5.843 2.08,-7.529 0,-7.529 c -2.078,0 -3.761,1.686 -3.761,3.764 C -3.761,-1.686 -2.078,0 0,0 m 0,0.972 c -2.611,0 -4.734,-2.125 -4.734,-4.737 0,-2.613 2.123,-4.737 4.734,-4.737 2.614,0 4.739,2.124 4.739,4.737 0,2.612 -2.125,4.737 -4.739,4.737" /></g><g
           transform="translate(170.4426,318.3703)"
           id="g3592"><path
             id="path3594"
             style="fill:none;stroke:#363639;stroke-width:0.97299999;stroke-linecap:round;stroke-linejoin:round;stroke-miterlimit:10;stroke-dasharray:none;stroke-opacity:1"
             d="M 0,0 0,-7.529 M 15.056,0 l 0,-7.529" /></g><g
           transform="translate(177.9731,318.3703)"
           id="g3596"><path
             id="path3598"
             style="fill:#363639;fill-opacity:1;fill-rule:nonzero;stroke:none"
             d="m 0,0 c 2.078,0 3.764,-1.686 3.764,-3.765 0,-2.078 -1.686,-3.764 -3.764,-3.764 -2.08,0 -3.764,1.686 -3.764,3.764 C -3.764,-1.686 -2.08,0 0,0 m 0,0.972 c -2.612,0 -4.736,-2.125 -4.736,-4.737 0,-2.613 2.124,-4.737 4.736,-4.737 2.612,0 4.737,2.124 4.737,4.737 0,2.612 -2.125,4.737 -4.737,4.737" /></g><g
           transform="translate(193.0272,318.3703)"
           id="g3600"><path
             id="path3602"
             style="fill:#363639;fill-opacity:1;fill-rule:nonzero;stroke:none"
             d="M 0,0 C 2.08,0 3.764,-1.686 3.764,-3.765 3.764,-5.843 2.08,-7.529 0,-7.529 c -2.078,0 -3.762,1.686 -3.762,3.764 C -3.762,-1.686 -2.078,0 0,0 m 0,0.972 c -2.611,0 -4.734,-2.125 -4.734,-4.737 0,-2.613 2.123,-4.737 4.734,-4.737 2.612,0 4.736,2.124 4.736,4.737 0,2.612 -2.124,4.737 -4.736,4.737" /></g><g
           transform="translate(200.5553,318.3703)"
           id="g3604"><path
             id="path3606"
             style="fill:none;stroke:#363639;stroke-width:0.97299999;stroke-linecap:round;stroke-linejoin:round;stroke-miterlimit:10;stroke-dasharray:none;stroke-opacity:1"
             d="M 0,0 0,-7.529 M 15.056,0 l 0,-7.529" /></g><g
           transform="translate(208.0834,318.3703)"
           id="g3608"><path
             id="path3610"
             style="fill:#363639;fill-opacity:1;fill-rule:nonzero;stroke:none"
             d="m 0,0 c 2.078,0 3.764,-1.686 3.764,-3.765 0,-2.078 -1.686,-3.764 -3.764,-3.764 -2.078,0 -3.764,1.686 -3.764,3.764 C -3.764,-1.686 -2.078,0 0,0 m 0,0.972 c -2.612,0 -4.737,-2.125 -4.737,-4.737 0,-2.613 2.125,-4.737 4.737,-4.737 2.612,0 4.736,2.124 4.736,4.737 0,2.612 -2.124,4.737 -4.736,4.737" /></g><g
           transform="translate(223.1397,318.3703)"
           id="g3612"><path
             id="path3614"
             style="fill:#363639;fill-opacity:1;fill-rule:nonzero;stroke:none"
             d="M 0,0 C 2.08,0 3.764,-1.686 3.764,-3.765 3.764,-5.843 2.08,-7.529 0,-7.529 c -2.078,0 -3.764,1.686 -3.764,3.764 C -3.764,-1.686 -2.078,0 0,0 m 0,0.972 c -2.612,0 -4.737,-2.125 -4.737,-4.737 0,-2.613 2.125,-4.737 4.737,-4.737 2.612,0 4.736,2.124 4.736,4.737 0,2.612 -2.124,4.737 -4.736,4.737" /></g><g
           transform="translate(230.6678,318.3703)"
           id="g3616"><path
             id="path3618"
             style="fill:none;stroke:#363639;stroke-width:0.97299999;stroke-linecap:round;stroke-linejoin:round;stroke-miterlimit:10;stroke-dasharray:none;stroke-opacity:1"
             d="M 0,0 0,-7.529 M 15.056,0 l 0,-7.529" /></g><g
           transform="translate(238.196,318.3703)"
           id="g3620"><path
             id="path3622"
             style="fill:#363639;fill-opacity:1;fill-rule:nonzero;stroke:none"
             d="m 0,0 c 2.078,0 3.764,-1.686 3.764,-3.765 0,-2.078 -1.686,-3.764 -3.764,-3.764 -2.078,0 -3.764,1.686 -3.764,3.764 C -3.764,-1.686 -2.078,0 0,0 m 0,0.972 c -2.612,0 -4.737,-2.125 -4.737,-4.737 0,-2.613 2.125,-4.737 4.737,-4.737 2.612,0 4.736,2.124 4.736,4.737 0,2.612 -2.124,4.737 -4.736,4.737" /></g><g
           transform="translate(140.3325,284.4937)"
           id="g3624"><path
             id="path3626"
             style="fill:#363639;fill-opacity:1;fill-rule:nonzero;stroke:none"
             d="m 0,0 c 2.078,0 3.764,-1.685 3.764,-3.764 0,-2.078 -1.686,-3.763 -3.764,-3.763 -2.08,0 -3.764,1.685 -3.764,3.763 C -3.764,-1.685 -2.08,0 0,0 m 0,0.972 c -2.612,0 -4.736,-2.124 -4.736,-4.736 0,-2.611 2.124,-4.735 4.736,-4.735 2.612,0 4.737,2.124 4.737,4.735 0,2.612 -2.125,4.736 -4.737,4.736" /></g><g
           transform="translate(147.8606,284.4937)"
           id="g3628"><path
             id="path3630"
             style="fill:none;stroke:#363639;stroke-width:0.97299999;stroke-linecap:round;stroke-linejoin:round;stroke-miterlimit:10;stroke-dasharray:none;stroke-opacity:1"
             d="M 0,0 0,-7.527 M 15.054,0 l 0,-7.527" /></g><g
           transform="translate(155.3863,284.4937)"
           id="g3632"><path
             id="path3634"
             style="fill:#363639;fill-opacity:1;fill-rule:nonzero;stroke:none"
             d="M 0,0 C 2.08,0 3.767,-1.685 3.767,-3.764 3.767,-5.842 2.08,-7.527 0,-7.527 c -2.078,0 -3.761,1.685 -3.761,3.763 C -3.761,-1.685 -2.078,0 0,0 m 0,0.972 c -2.611,0 -4.734,-2.124 -4.734,-4.736 0,-2.611 2.123,-4.735 4.734,-4.735 2.613,0 4.739,2.124 4.739,4.735 0,2.612 -2.126,4.736 -4.739,4.736" /></g><g
           transform="translate(170.4426,284.4937)"
           id="g3636"><path
             id="path3638"
             style="fill:#363639;fill-opacity:1;fill-rule:nonzero;stroke:none"
             d="M 0,0 C 2.08,0 3.767,-1.685 3.767,-3.764 3.767,-5.842 2.08,-7.527 0,-7.527 c -2.078,0 -3.761,1.685 -3.761,3.763 C -3.761,-1.685 -2.078,0 0,0 m 0,0.972 c -2.611,0 -4.734,-2.124 -4.734,-4.736 0,-2.611 2.123,-4.735 4.734,-4.735 2.614,0 4.739,2.124 4.739,4.735 0,2.612 -2.125,4.736 -4.739,4.736" /></g><g
           transform="translate(177.9731,284.4937)"
           id="g3640"><path
             id="path3642"
             style="fill:none;stroke:#363639;stroke-width:0.97299999;stroke-linecap:round;stroke-linejoin:round;stroke-miterlimit:10;stroke-dasharray:none;stroke-opacity:1"
             d="M 0,0 0,-7.527 M 15.054,0 l 0,-7.527" /></g><g
           transform="translate(185.4991,284.4937)"
           id="g3644"><path
             id="path3646"
             style="fill:#363639;fill-opacity:1;fill-rule:nonzero;stroke:none"
             d="M 0,0 C 2.08,0 3.766,-1.685 3.766,-3.764 3.766,-5.842 2.08,-7.527 0,-7.527 c -2.078,0 -3.762,1.685 -3.762,3.763 C -3.762,-1.685 -2.078,0 0,0 m 0,0.972 c -2.611,0 -4.734,-2.124 -4.734,-4.736 0,-2.611 2.123,-4.735 4.734,-4.735 2.613,0 4.739,2.124 4.739,4.735 0,2.612 -2.126,4.736 -4.739,4.736" /></g><g
           transform="translate(200.5553,284.4937)"
           id="g3648"><path
             id="path3650"
             style="fill:#363639;fill-opacity:1;fill-rule:nonzero;stroke:none"
             d="m 0,0 c 2.078,0 3.764,-1.685 3.764,-3.764 0,-2.078 -1.686,-3.763 -3.764,-3.763 -2.08,0 -3.764,1.685 -3.764,3.763 C -3.764,-1.685 -2.08,0 0,0 m 0,0.972 c -2.612,0 -4.737,-2.124 -4.737,-4.736 0,-2.611 2.125,-4.735 4.737,-4.735 2.612,0 4.736,2.124 4.736,4.735 0,2.612 -2.124,4.736 -4.736,4.736" /></g><g
           transform="translate(208.0834,284.4937)"
           id="g3652"><path
             id="path3654"
             style="fill:none;stroke:#363639;stroke-width:0.97299999;stroke-linecap:round;stroke-linejoin:round;stroke-miterlimit:10;stroke-dasharray:none;stroke-opacity:1"
             d="M 0,0 0,-7.527 M 15.056,0 l 0,-7.527" /></g><g
           transform="translate(215.6116,284.4937)"
           id="g3656"><path
             id="path3658"
             style="fill:#363639;fill-opacity:1;fill-rule:nonzero;stroke:none"
             d="m 0,0 c 2.078,0 3.764,-1.685 3.764,-3.764 0,-2.078 -1.686,-3.763 -3.764,-3.763 -2.08,0 -3.764,1.685 -3.764,3.763 C -3.764,-1.685 -2.08,0 0,0 m 0,0.972 c -2.613,0 -4.737,-2.124 -4.737,-4.736 0,-2.611 2.124,-4.735 4.737,-4.735 2.612,0 4.736,2.124 4.736,4.735 0,2.612 -2.124,4.736 -4.736,4.736" /></g><g
           transform="translate(230.6678,284.4937)"
           id="g3660"><path
             id="path3662"
             style="fill:#363639;fill-opacity:1;fill-rule:nonzero;stroke:none"
             d="m 0,0 c 2.078,0 3.764,-1.685 3.764,-3.764 0,-2.078 -1.686,-3.763 -3.764,-3.763 -2.078,0 -3.764,1.685 -3.764,3.763 C -3.764,-1.685 -2.078,0 0,0 m 0,0.972 c -2.612,0 -4.737,-2.124 -4.737,-4.736 0,-2.611 2.125,-4.735 4.737,-4.735 2.612,0 4.736,2.124 4.736,4.735 0,2.612 -2.124,4.736 -4.736,4.736" /></g><g
           transform="translate(238.196,284.4937)"
           id="g3664"><path
             id="path3666"
             style="fill:none;stroke:#363639;stroke-width:0.97299999;stroke-linecap:round;stroke-linejoin:round;stroke-miterlimit:10;stroke-dasharray:none;stroke-opacity:1"
             d="M 0,0 0,-7.527" /></g><g
           transform="translate(245.7241,284.4937)"
           id="g3668"><path
             id="path3670"
             style="fill:#363639;fill-opacity:1;fill-rule:nonzero;stroke:none"
             d="m 0,0 c 2.078,0 3.762,-1.685 3.762,-3.764 0,-2.078 -1.684,-3.763 -3.762,-3.763 -2.08,0 -3.764,1.685 -3.764,3.763 C -3.764,-1.685 -2.08,0 0,0 m 0,0.972 c -2.612,0 -4.737,-2.124 -4.737,-4.736 0,-2.611 2.125,-4.735 4.737,-4.735 2.611,0 4.734,2.124 4.734,4.735 0,2.612 -2.123,4.736 -4.734,4.736" /></g><g
           transform="translate(140.3325,295.7859)"
           id="g3672"><path
             id="path3674"
             style="fill:none;stroke:#363639;stroke-width:0.97299999;stroke-linecap:round;stroke-linejoin:round;stroke-miterlimit:10;stroke-dasharray:none;stroke-opacity:1"
             d="M 0,0 0,-7.528 M 15.054,0 l 0,-7.528" /></g><g
           transform="translate(147.8606,295.7859)"
           id="g3676"><path
             id="path3678"
             style="fill:#363639;fill-opacity:1;fill-rule:nonzero;stroke:none"
             d="m 0,0 c 2.078,0 3.764,-1.685 3.764,-3.765 0,-2.077 -1.686,-3.763 -3.764,-3.763 -2.078,0 -3.764,1.686 -3.764,3.763 C -3.764,-1.685 -2.078,0 0,0 m 0,0.972 c -2.612,0 -4.736,-2.125 -4.736,-4.737 0,-2.611 2.124,-4.736 4.736,-4.736 2.612,0 4.737,2.125 4.737,4.736 0,2.612 -2.125,4.737 -4.737,4.737" /></g><g
           transform="translate(162.9144,295.7859)"
           id="g3680"><path
             id="path3682"
             style="fill:#363639;fill-opacity:1;fill-rule:nonzero;stroke:none"
             d="M 0,0 C 2.08,0 3.767,-1.685 3.767,-3.765 3.767,-5.842 2.08,-7.528 0,-7.528 c -2.078,0 -3.761,1.686 -3.761,3.763 C -3.761,-1.685 -2.078,0 0,0 m 0,0.972 c -2.611,0 -4.734,-2.125 -4.734,-4.737 0,-2.611 2.123,-4.736 4.734,-4.736 2.614,0 4.739,2.125 4.739,4.736 0,2.612 -2.125,4.737 -4.739,4.737" /></g><g
           transform="translate(170.4426,295.7859)"
           id="g3684"><path
             id="path3686"
             style="fill:none;stroke:#363639;stroke-width:0.97299999;stroke-linecap:round;stroke-linejoin:round;stroke-miterlimit:10;stroke-dasharray:none;stroke-opacity:1"
             d="M 0,0 0,-7.528 M 15.056,0 l 0,-7.528" /></g><g
           transform="translate(177.9731,295.7859)"
           id="g3688"><path
             id="path3690"
             style="fill:#363639;fill-opacity:1;fill-rule:nonzero;stroke:none"
             d="m 0,0 c 2.078,0 3.764,-1.685 3.764,-3.765 0,-2.077 -1.686,-3.763 -3.764,-3.763 -2.08,0 -3.764,1.686 -3.764,3.763 C -3.764,-1.685 -2.08,0 0,0 m 0,0.972 c -2.612,0 -4.736,-2.125 -4.736,-4.737 0,-2.611 2.124,-4.736 4.736,-4.736 2.612,0 4.737,2.125 4.737,4.736 0,2.612 -2.125,4.737 -4.737,4.737" /></g><g
           transform="translate(193.0272,295.7859)"
           id="g3692"><path
             id="path3694"
             style="fill:#363639;fill-opacity:1;fill-rule:nonzero;stroke:none"
             d="M 0,0 C 2.08,0 3.764,-1.685 3.764,-3.765 3.764,-5.842 2.08,-7.528 0,-7.528 c -2.078,0 -3.762,1.686 -3.762,3.763 C -3.762,-1.685 -2.078,0 0,0 m 0,0.972 c -2.611,0 -4.734,-2.125 -4.734,-4.737 0,-2.611 2.123,-4.736 4.734,-4.736 2.612,0 4.736,2.125 4.736,4.736 0,2.612 -2.124,4.737 -4.736,4.737" /></g><g
           transform="translate(200.5553,295.7859)"
           id="g3696"><path
             id="path3698"
             style="fill:none;stroke:#363639;stroke-width:0.97299999;stroke-linecap:round;stroke-linejoin:round;stroke-miterlimit:10;stroke-dasharray:none;stroke-opacity:1"
             d="M 0,0 0,-7.528 M 15.056,0 l 0,-7.528" /></g><g
           transform="translate(208.0834,295.7859)"
           id="g3700"><path
             id="path3702"
             style="fill:#363639;fill-opacity:1;fill-rule:nonzero;stroke:none"
             d="m 0,0 c 2.078,0 3.764,-1.685 3.764,-3.765 0,-2.077 -1.686,-3.763 -3.764,-3.763 -2.078,0 -3.764,1.686 -3.764,3.763 C -3.764,-1.685 -2.078,0 0,0 m 0,0.972 c -2.612,0 -4.737,-2.125 -4.737,-4.737 0,-2.611 2.125,-4.736 4.737,-4.736 2.612,0 4.736,2.125 4.736,4.736 0,2.612 -2.124,4.737 -4.736,4.737" /></g><g
           transform="translate(223.1397,295.7859)"
           id="g3704"><path
             id="path3706"
             style="fill:#363639;fill-opacity:1;fill-rule:nonzero;stroke:none"
             d="M 0,0 C 2.08,0 3.764,-1.685 3.764,-3.765 3.764,-5.842 2.08,-7.528 0,-7.528 c -2.078,0 -3.764,1.686 -3.764,3.763 C -3.764,-1.685 -2.078,0 0,0 m 0,0.972 c -2.612,0 -4.737,-2.125 -4.737,-4.737 0,-2.611 2.125,-4.736 4.737,-4.736 2.612,0 4.736,2.125 4.736,4.736 0,2.612 -2.124,4.737 -4.736,4.737" /></g><g
           transform="translate(230.6678,295.7859)"
           id="g3708"><path
             id="path3710"
             style="fill:none;stroke:#363639;stroke-width:0.97299999;stroke-linecap:round;stroke-linejoin:round;stroke-miterlimit:10;stroke-dasharray:none;stroke-opacity:1"
             d="M 0,0 0,-7.528 M 15.056,0 l 0,-7.528" /></g><g
           transform="translate(238.196,295.7859)"
           id="g3712"><path
             id="path3714"
             style="fill:#363639;fill-opacity:1;fill-rule:nonzero;stroke:none"
             d="m 0,0 c 2.078,0 3.764,-1.685 3.764,-3.765 0,-2.077 -1.686,-3.763 -3.764,-3.763 -2.078,0 -3.764,1.686 -3.764,3.763 C -3.764,-1.685 -2.078,0 0,0 m 0,0.972 c -2.612,0 -4.737,-2.125 -4.737,-4.737 0,-2.611 2.125,-4.736 4.737,-4.736 2.612,0 4.736,2.125 4.736,4.736 0,2.612 -2.124,4.737 -4.736,4.737" /></g><g
           transform="translate(140.3325,261.9104)"
           id="g3716"><path
             id="path3718"
             style="fill:#363639;fill-opacity:1;fill-rule:nonzero;stroke:none"
             d="m 0,0 c 2.078,0 3.764,-1.686 3.764,-3.765 0,-2.077 -1.686,-3.763 -3.764,-3.763 -2.08,0 -3.764,1.686 -3.764,3.763 C -3.764,-1.686 -2.08,0 0,0 m 0,0.973 c -2.612,0 -4.736,-2.126 -4.736,-4.738 0,-2.611 2.124,-4.735 4.736,-4.735 2.612,0 4.737,2.124 4.737,4.735 0,2.612 -2.125,4.738 -4.737,4.738" /></g><g
           transform="translate(147.8606,261.9104)"
           id="g3720"><path
             id="path3722"
             style="fill:none;stroke:#363639;stroke-width:0.97299999;stroke-linecap:round;stroke-linejoin:round;stroke-miterlimit:10;stroke-dasharray:none;stroke-opacity:1"
             d="M 0,0 0,-7.528 M 15.054,0 l 0,-7.528" /></g><g
           transform="translate(155.3863,261.9104)"
           id="g3724"><path
             id="path3726"
             style="fill:#363639;fill-opacity:1;fill-rule:nonzero;stroke:none"
             d="M 0,0 C 2.08,0 3.767,-1.686 3.767,-3.765 3.767,-5.842 2.08,-7.528 0,-7.528 c -2.078,0 -3.761,1.686 -3.761,3.763 C -3.761,-1.686 -2.078,0 0,0 m 0,0.973 c -2.611,0 -4.734,-2.126 -4.734,-4.738 0,-2.611 2.123,-4.735 4.734,-4.735 2.613,0 4.739,2.124 4.739,4.735 0,2.612 -2.126,4.738 -4.739,4.738" /></g><g
           transform="translate(170.4426,261.9104)"
           id="g3728"><path
             id="path3730"
             style="fill:#363639;fill-opacity:1;fill-rule:nonzero;stroke:none"
             d="M 0,0 C 2.08,0 3.767,-1.686 3.767,-3.765 3.767,-5.842 2.08,-7.528 0,-7.528 c -2.078,0 -3.761,1.686 -3.761,3.763 C -3.761,-1.686 -2.078,0 0,0 m 0,0.973 c -2.611,0 -4.734,-2.126 -4.734,-4.738 0,-2.611 2.123,-4.735 4.734,-4.735 2.614,0 4.739,2.124 4.739,4.735 0,2.612 -2.125,4.738 -4.739,4.738" /></g><g
           transform="translate(177.9731,261.9104)"
           id="g3732"><path
             id="path3734"
             style="fill:none;stroke:#363639;stroke-width:0.97299999;stroke-linecap:round;stroke-linejoin:round;stroke-miterlimit:10;stroke-dasharray:none;stroke-opacity:1"
             d="M 0,0 0,-7.528 M 15.054,0 l 0,-7.528" /></g><g
           transform="translate(185.4991,261.9104)"
           id="g3736"><path
             id="path3738"
             style="fill:#363639;fill-opacity:1;fill-rule:nonzero;stroke:none"
             d="M 0,0 C 2.08,0 3.766,-1.686 3.766,-3.765 3.766,-5.842 2.08,-7.528 0,-7.528 c -2.078,0 -3.762,1.686 -3.762,3.763 C -3.762,-1.686 -2.078,0 0,0 m 0,0.973 c -2.611,0 -4.734,-2.126 -4.734,-4.738 0,-2.611 2.123,-4.735 4.734,-4.735 2.613,0 4.739,2.124 4.739,4.735 0,2.612 -2.126,4.738 -4.739,4.738" /></g><g
           transform="translate(200.5553,261.9104)"
           id="g3740"><path
             id="path3742"
             style="fill:#363639;fill-opacity:1;fill-rule:nonzero;stroke:none"
             d="m 0,0 c 2.078,0 3.764,-1.686 3.764,-3.765 0,-2.077 -1.686,-3.763 -3.764,-3.763 -2.08,0 -3.764,1.686 -3.764,3.763 C -3.764,-1.686 -2.08,0 0,0 m 0,0.973 c -2.612,0 -4.737,-2.126 -4.737,-4.738 0,-2.611 2.125,-4.735 4.737,-4.735 2.612,0 4.736,2.124 4.736,4.735 0,2.612 -2.124,4.738 -4.736,4.738" /></g><g
           transform="translate(208.0834,261.9104)"
           id="g3744"><path
             id="path3746"
             style="fill:none;stroke:#363639;stroke-width:0.97299999;stroke-linecap:round;stroke-linejoin:round;stroke-miterlimit:10;stroke-dasharray:none;stroke-opacity:1"
             d="M 0,0 0,-7.528 M 15.056,0 l 0,-7.528" /></g><g
           transform="translate(215.6116,261.9104)"
           id="g3748"><path
             id="path3750"
             style="fill:#363639;fill-opacity:1;fill-rule:nonzero;stroke:none"
             d="m 0,0 c 2.078,0 3.764,-1.686 3.764,-3.765 0,-2.077 -1.686,-3.763 -3.764,-3.763 -2.08,0 -3.764,1.686 -3.764,3.763 C -3.764,-1.686 -2.08,0 0,0 m 0,0.973 c -2.613,0 -4.737,-2.126 -4.737,-4.738 0,-2.611 2.124,-4.735 4.737,-4.735 2.612,0 4.736,2.124 4.736,4.735 0,2.612 -2.124,4.738 -4.736,4.738" /></g><g
           transform="translate(230.6678,261.9104)"
           id="g3752"><path
             id="path3754"
             style="fill:#363639;fill-opacity:1;fill-rule:nonzero;stroke:none"
             d="m 0,0 c 2.078,0 3.764,-1.686 3.764,-3.765 0,-2.077 -1.686,-3.763 -3.764,-3.763 -2.078,0 -3.764,1.686 -3.764,3.763 C -3.764,-1.686 -2.078,0 0,0 m 0,0.973 c -2.612,0 -4.737,-2.126 -4.737,-4.738 0,-2.611 2.125,-4.735 4.737,-4.735 2.612,0 4.736,2.124 4.736,4.735 0,2.612 -2.124,4.738 -4.736,4.738" /></g><g
           transform="translate(238.196,261.9104)"
           id="g3756"><path
             id="path3758"
             style="fill:none;stroke:#363639;stroke-width:0.97299999;stroke-linecap:round;stroke-linejoin:round;stroke-miterlimit:10;stroke-dasharray:none;stroke-opacity:1"
             d="M 0,0 0,-7.528" /></g><g
           transform="translate(245.7241,261.9104)"
           id="g3760"><path
             id="path3762"
             style="fill:#363639;fill-opacity:1;fill-rule:nonzero;stroke:none"
             d="m 0,0 c 2.078,0 3.762,-1.686 3.762,-3.765 0,-2.077 -1.684,-3.763 -3.762,-3.763 -2.08,0 -3.764,1.686 -3.764,3.763 C -3.764,-1.686 -2.08,0 0,0 m 0,0.973 c -2.612,0 -4.737,-2.126 -4.737,-4.738 0,-2.611 2.125,-4.735 4.737,-4.735 2.611,0 4.734,2.124 4.734,4.735 0,2.612 -2.123,4.738 -4.734,4.738" /></g><g
           transform="translate(140.3325,273.2014)"
           id="g3764"><path
             id="path3766"
             style="fill:none;stroke:#363639;stroke-width:0.97299999;stroke-linecap:round;stroke-linejoin:round;stroke-miterlimit:10;stroke-dasharray:none;stroke-opacity:1"
             d="M 0,0 0,-7.528 M 15.054,0 l 0,-7.528" /></g><g
           transform="translate(147.8606,273.2014)"
           id="g3768"><path
             id="path3770"
             style="fill:#363639;fill-opacity:1;fill-rule:nonzero;stroke:none"
             d="m 0,0 c 2.078,0 3.764,-1.685 3.764,-3.764 0,-2.078 -1.686,-3.764 -3.764,-3.764 -2.078,0 -3.764,1.686 -3.764,3.764 C -3.764,-1.685 -2.078,0 0,0 m 0,0.972 c -2.612,0 -4.736,-2.124 -4.736,-4.736 0,-2.612 2.124,-4.737 4.736,-4.737 2.612,0 4.737,2.125 4.737,4.737 0,2.612 -2.125,4.736 -4.737,4.736" /></g><g
           transform="translate(162.9144,273.2014)"
           id="g3772"><path
             id="path3774"
             style="fill:#363639;fill-opacity:1;fill-rule:nonzero;stroke:none"
             d="M 0,0 C 2.08,0 3.767,-1.685 3.767,-3.764 3.767,-5.842 2.08,-7.528 0,-7.528 c -2.078,0 -3.761,1.686 -3.761,3.764 C -3.761,-1.685 -2.078,0 0,0 m 0,0.972 c -2.611,0 -4.734,-2.124 -4.734,-4.736 0,-2.612 2.123,-4.737 4.734,-4.737 2.614,0 4.739,2.125 4.739,4.737 0,2.612 -2.125,4.736 -4.739,4.736" /></g><g
           transform="translate(170.4426,273.2014)"
           id="g3776"><path
             id="path3778"
             style="fill:none;stroke:#363639;stroke-width:0.97299999;stroke-linecap:round;stroke-linejoin:round;stroke-miterlimit:10;stroke-dasharray:none;stroke-opacity:1"
             d="M 0,0 0,-7.528 M 15.056,0 l 0,-7.528" /></g><g
           transform="translate(177.9731,273.2014)"
           id="g3780"><path
             id="path3782"
             style="fill:#363639;fill-opacity:1;fill-rule:nonzero;stroke:none"
             d="m 0,0 c 2.078,0 3.764,-1.685 3.764,-3.764 0,-2.078 -1.686,-3.764 -3.764,-3.764 -2.08,0 -3.764,1.686 -3.764,3.764 C -3.764,-1.685 -2.08,0 0,0 m 0,0.972 c -2.612,0 -4.736,-2.124 -4.736,-4.736 0,-2.612 2.124,-4.737 4.736,-4.737 2.612,0 4.737,2.125 4.737,4.737 0,2.612 -2.125,4.736 -4.737,4.736" /></g><g
           transform="translate(193.0272,273.2014)"
           id="g3784"><path
             id="path3786"
             style="fill:#363639;fill-opacity:1;fill-rule:nonzero;stroke:none"
             d="M 0,0 C 2.08,0 3.764,-1.685 3.764,-3.764 3.764,-5.842 2.08,-7.528 0,-7.528 c -2.078,0 -3.762,1.686 -3.762,3.764 C -3.762,-1.685 -2.078,0 0,0 m 0,0.972 c -2.611,0 -4.734,-2.124 -4.734,-4.736 0,-2.612 2.123,-4.737 4.734,-4.737 2.612,0 4.736,2.125 4.736,4.737 0,2.612 -2.124,4.736 -4.736,4.736" /></g><g
           transform="translate(200.5553,273.2014)"
           id="g3788"><path
             id="path3790"
             style="fill:none;stroke:#363639;stroke-width:0.97299999;stroke-linecap:round;stroke-linejoin:round;stroke-miterlimit:10;stroke-dasharray:none;stroke-opacity:1"
             d="M 0,0 0,-7.528 M 15.056,0 l 0,-7.528" /></g><g
           transform="translate(208.0834,273.2014)"
           id="g3792"><path
             id="path3794"
             style="fill:#363639;fill-opacity:1;fill-rule:nonzero;stroke:none"
             d="m 0,0 c 2.078,0 3.764,-1.685 3.764,-3.764 0,-2.078 -1.686,-3.764 -3.764,-3.764 -2.078,0 -3.764,1.686 -3.764,3.764 C -3.764,-1.685 -2.078,0 0,0 m 0,0.972 c -2.612,0 -4.737,-2.124 -4.737,-4.736 0,-2.612 2.125,-4.737 4.737,-4.737 2.612,0 4.736,2.125 4.736,4.737 0,2.612 -2.124,4.736 -4.736,4.736" /></g><g
           transform="translate(223.1397,273.2014)"
           id="g3796"><path
             id="path3798"
             style="fill:#363639;fill-opacity:1;fill-rule:nonzero;stroke:none"
             d="M 0,0 C 2.08,0 3.764,-1.685 3.764,-3.764 3.764,-5.842 2.08,-7.528 0,-7.528 c -2.078,0 -3.764,1.686 -3.764,3.764 C -3.764,-1.685 -2.078,0 0,0 m 0,0.972 c -2.612,0 -4.737,-2.124 -4.737,-4.736 0,-2.612 2.125,-4.737 4.737,-4.737 2.612,0 4.736,2.125 4.736,4.737 0,2.612 -2.124,4.736 -4.736,4.736" /></g><g
           transform="translate(230.6678,273.2014)"
           id="g3800"><path
             id="path3802"
             style="fill:none;stroke:#363639;stroke-width:0.97299999;stroke-linecap:round;stroke-linejoin:round;stroke-miterlimit:10;stroke-dasharray:none;stroke-opacity:1"
             d="M 0,0 0,-7.528 M 15.056,0 l 0,-7.528" /></g><g
           transform="translate(238.196,273.2014)"
           id="g3804"><path
             id="path3806"
             style="fill:#363639;fill-opacity:1;fill-rule:nonzero;stroke:none"
             d="m 0,0 c 2.078,0 3.764,-1.685 3.764,-3.764 0,-2.078 -1.686,-3.764 -3.764,-3.764 -2.078,0 -3.764,1.686 -3.764,3.764 C -3.764,-1.685 -2.078,0 0,0 m 0,0.972 c -2.612,0 -4.737,-2.124 -4.737,-4.736 0,-2.612 2.125,-4.737 4.737,-4.737 2.612,0 4.736,2.125 4.736,4.737 0,2.612 -2.124,4.736 -4.736,4.736" /></g><g
           transform="translate(140.3325,250.6183)"
           id="g3808"><path
             id="path3810"
             style="fill:none;stroke:#363639;stroke-width:0.97299999;stroke-linecap:round;stroke-linejoin:round;stroke-miterlimit:10;stroke-dasharray:none;stroke-opacity:1"
             d="M 0,0 0,-7.528 M 15.054,0 l 0,-7.528" /></g><g
           transform="translate(147.8606,250.6183)"
           id="g3812"><path
             id="path3814"
             style="fill:#363639;fill-opacity:1;fill-rule:nonzero;stroke:none"
             d="m 0,0 c 2.078,0 3.764,-1.685 3.764,-3.764 0,-2.079 -1.686,-3.764 -3.764,-3.764 -2.078,0 -3.764,1.685 -3.764,3.764 C -3.764,-1.685 -2.078,0 0,0 m 0,0.972 c -2.612,0 -4.736,-2.124 -4.736,-4.736 0,-2.612 2.124,-4.737 4.736,-4.737 2.612,0 4.737,2.125 4.737,4.737 0,2.612 -2.125,4.736 -4.737,4.736" /></g><g
           transform="translate(162.9144,250.6183)"
           id="g3816"><path
             id="path3818"
             style="fill:#363639;fill-opacity:1;fill-rule:nonzero;stroke:none"
             d="M 0,0 C 2.08,0 3.767,-1.685 3.767,-3.764 3.767,-5.843 2.08,-7.528 0,-7.528 c -2.078,0 -3.761,1.685 -3.761,3.764 C -3.761,-1.685 -2.078,0 0,0 m 0,0.972 c -2.611,0 -4.734,-2.124 -4.734,-4.736 0,-2.612 2.123,-4.737 4.734,-4.737 2.614,0 4.739,2.125 4.739,4.737 0,2.612 -2.125,4.736 -4.739,4.736" /></g><g
           transform="translate(170.4426,250.6183)"
           id="g3820"><path
             id="path3822"
             style="fill:none;stroke:#363639;stroke-width:0.97299999;stroke-linecap:round;stroke-linejoin:round;stroke-miterlimit:10;stroke-dasharray:none;stroke-opacity:1"
             d="M 0,0 0,-7.528 M 15.056,0 l 0,-7.528" /></g><g
           transform="translate(177.9731,250.6183)"
           id="g3824"><path
             id="path3826"
             style="fill:#363639;fill-opacity:1;fill-rule:nonzero;stroke:none"
             d="m 0,0 c 2.078,0 3.764,-1.685 3.764,-3.764 0,-2.079 -1.686,-3.764 -3.764,-3.764 -2.08,0 -3.764,1.685 -3.764,3.764 C -3.764,-1.685 -2.08,0 0,0 m 0,0.972 c -2.612,0 -4.736,-2.124 -4.736,-4.736 0,-2.612 2.124,-4.737 4.736,-4.737 2.612,0 4.737,2.125 4.737,4.737 0,2.612 -2.125,4.736 -4.737,4.736" /></g><g
           transform="translate(193.0272,250.6183)"
           id="g3828"><path
             id="path3830"
             style="fill:#363639;fill-opacity:1;fill-rule:nonzero;stroke:none"
             d="M 0,0 C 2.08,0 3.764,-1.685 3.764,-3.764 3.764,-5.843 2.08,-7.528 0,-7.528 c -2.078,0 -3.762,1.685 -3.762,3.764 C -3.762,-1.685 -2.078,0 0,0 m 0,0.972 c -2.611,0 -4.734,-2.124 -4.734,-4.736 0,-2.612 2.123,-4.737 4.734,-4.737 2.612,0 4.736,2.125 4.736,4.737 0,2.612 -2.124,4.736 -4.736,4.736" /></g><g
           transform="translate(200.5553,250.6183)"
           id="g3832"><path
             id="path3834"
             style="fill:none;stroke:#363639;stroke-width:0.97299999;stroke-linecap:round;stroke-linejoin:round;stroke-miterlimit:10;stroke-dasharray:none;stroke-opacity:1"
             d="M 0,0 0,-7.528 M 15.056,0 l 0,-7.528" /></g><g
           transform="translate(208.0834,250.6183)"
           id="g3836"><path
             id="path3838"
             style="fill:#363639;fill-opacity:1;fill-rule:nonzero;stroke:none"
             d="m 0,0 c 2.078,0 3.764,-1.685 3.764,-3.764 0,-2.079 -1.686,-3.764 -3.764,-3.764 -2.078,0 -3.764,1.685 -3.764,3.764 C -3.764,-1.685 -2.078,0 0,0 m 0,0.972 c -2.612,0 -4.737,-2.124 -4.737,-4.736 0,-2.612 2.125,-4.737 4.737,-4.737 2.612,0 4.736,2.125 4.736,4.737 0,2.612 -2.124,4.736 -4.736,4.736" /></g><g
           transform="translate(223.1397,250.6183)"
           id="g3840"><path
             id="path3842"
             style="fill:#363639;fill-opacity:1;fill-rule:nonzero;stroke:none"
             d="M 0,0 C 2.08,0 3.764,-1.685 3.764,-3.764 3.764,-5.843 2.08,-7.528 0,-7.528 c -2.078,0 -3.764,1.685 -3.764,3.764 C -3.764,-1.685 -2.078,0 0,0 m 0,0.972 c -2.612,0 -4.737,-2.124 -4.737,-4.736 0,-2.612 2.125,-4.737 4.737,-4.737 2.612,0 4.736,2.125 4.736,4.737 0,2.612 -2.124,4.736 -4.736,4.736" /></g><g
           transform="translate(230.6678,250.6183)"
           id="g3844"><path
             id="path3846"
             style="fill:none;stroke:#363639;stroke-width:0.97299999;stroke-linecap:round;stroke-linejoin:round;stroke-miterlimit:10;stroke-dasharray:none;stroke-opacity:1"
             d="M 0,0 0,-7.528 M 15.056,0 l 0,-7.528" /></g><g
           transform="translate(238.196,250.6183)"
           id="g3848"><path
             id="path3850"
             style="fill:#363639;fill-opacity:1;fill-rule:nonzero;stroke:none"
             d="m 0,0 c 2.078,0 3.764,-1.685 3.764,-3.764 0,-2.079 -1.686,-3.764 -3.764,-3.764 -2.078,0 -3.764,1.685 -3.764,3.764 C -3.764,-1.685 -2.078,0 0,0 m 0,0.972 c -2.612,0 -4.737,-2.124 -4.737,-4.736 0,-2.612 2.125,-4.737 4.737,-4.737 2.612,0 4.736,2.125 4.736,4.737 0,2.612 -2.124,4.736 -4.736,4.736" /></g></g></g></g></svg>